# xmcd CD database file
#
# Track frame offsets:
#	182
#	12692
#	26742
#	39162
#	53762
#	66355
#	77515
#	90790
#	103030
#	117842
#	132045
#	146535
#	160262
#	174307
#	187042
#	199810
#	213110
#	227047
#	239567
#
# Disc length: 3381 seconds
#
# Revision: 1
# Processed by: cddbd v1.5PL3 Copyright (c) Steve Scherf et al.
# Submitted via: CDex 1.50Beta7
#
DISCID=f90d3313
DTITLE=Duke Ellington - 1947-1952 volume 4
DYEAR=1988
DGENRE=Jazz
TTITLE0=Eighth Veil
TTITLE1=Brown Betty
TTITLE2=Deep night
TTITLE3=Please Be Kind
TTITLE4=Smada
TTITLE5=Rock Skippin' At The Blue Note
TTITLE6=Bensonality
TTITLE7=Blues at Sundown
TTITLE8=Duet
TTITLE9=Azalea
TTITLE10=Vagabonds
TTITLE11=Something to Live for
TTITLE12=I Love my Lovin' Lover
TTITLE13=Come on Home
TTITLE14=The Blues
TTITLE15=Body and Soul
TTITLE16=Primpin' for the Prom
TTITLE17=The Vulture Song
TTITLE18=Follow me
EXTD=YEAR: 1988
EXTT0=
EXTT1=
EXTT2=
EXTT3=
EXTT4=
EXTT5=
EXTT6=
EXTT7=
EXTT8=
EXTT9=
EXTT10=
EXTT11=
EXTT12=
EXTT13=
EXTT14=
EXTT15=
EXTT16=
EXTT17=
EXTT18=
PLAYORDER=
